<?xml version="1.0" encoding="utf-8"?>
<!-- Generator: Adobe Illustrator 23.0.0, SVG Export Plug-In . SVG Version: 6.00 Build 0)  -->
<svg version="1.1" id="orange_1_" xmlns="http://www.w3.org/2000/svg" xmlns:xlink="http://www.w3.org/1999/xlink" x="0px" y="0px"
	 viewBox="0 0 421.25 300.97" style="enable-background:new 0 0 421.25 300.97;" xml:space="preserve">
<style type="text/css">
	.st0{fill-rule:evenodd;clip-rule:evenodd;fill:#676767;}
	.st1{fill-rule:evenodd;clip-rule:evenodd;fill:#FAA727;}
	.st2{display:none;fill-rule:evenodd;clip-rule:evenodd;fill:#FDB835;}
	.st3{fill-rule:evenodd;clip-rule:evenodd;fill:#F05653;}
	.st4{fill-rule:evenodd;clip-rule:evenodd;fill:#FFFFFF;}
	.st5{fill-rule:evenodd;clip-rule:evenodd;fill:#7B1126;}
	.st6{fill-rule:evenodd;clip-rule:evenodd;fill:#DC7C27;}
	.st7{fill-rule:evenodd;clip-rule:evenodd;fill:#BB6128;}
	.st8{fill-rule:evenodd;clip-rule:evenodd;fill:#FDB835;}
</style>
<g id="orange">
	<path class="st0" d="M275.5,50.69c0,0,43.68,23.26,66.2,14.1c22.56-9.16,7.75-64.8,7.75-64.8c46.77,3.42,87.93,49.29,65.49,114.09
		c0,0-3.75-28.09-27.14-44.3c15.14,45.08-8.42,66.49-8.42,66.49c-0.13-63.85-52.42-61-68.67-18.44L275.5,50.69z"/>
	<path class="st0" d="M145.71,50.69c0,0-43.64,23.26-66.16,14.1C56.99,55.64,71.8,0,71.8,0C25.02,3.42-16.14,49.29,6.3,114.09
		c0,0,3.75-28.09,27.14-44.3c-15.14,45.08,8.41,66.49,8.41,66.49c0.12-63.85,52.42-61,68.67-18.44L145.71,50.69z"/>
	<path class="st1" d="M159.52,294.49l-12.04,6.47l24.37-0.16c0.37-14.64-0.74-24.75,7.59-36.71c12.13,2.89,51.68,2.89,63.8,0
		c8.33,11.96,7.22,22.07,7.59,36.71l24.37,0.16l-12.04-6.47C476.73-74.98-49.34-74.36,159.52,294.49L159.52,294.49z"/>
	<path class="st2" d="M295.79,62.32C230.62-37.41,30.51,29.9,143.39,263.68c87.19-3.51,156.81-75.31,156.81-163.37
		C300.2,87.23,298.68,74.53,295.79,62.32L295.79,62.32z"/>
	<path class="st3" d="M269.52,162.05c0.58,3.39,0.91,6.89,0.91,10.44c0,32.09-25.98,58.07-58.07,58.07
		c-32.09,0-58.07-25.98-58.07-58.07c0-3.51,0.29-6.93,0.91-10.27c17.16,1.53,36.21,2.4,56.34,2.4
		C232.32,164.61,251.95,163.7,269.52,162.05L269.52,162.05z"/>
	<path class="st4" d="M161.01,162.71c6.6,0.5,13.44,0.91,20.5,1.24c-0.66,8.66-4.99,15.38-10.19,15.38
		C165.83,179.34,161.34,171.99,161.01,162.71L161.01,162.71z M187.81,164.2c6.64,0.21,13.44,0.37,20.38,0.41
		c-0.87,8.33-5.07,14.72-10.19,14.72C192.85,179.34,188.56,172.74,187.81,164.2L187.81,164.2z M214.54,164.61
		c6.93-0.04,13.73-0.16,20.37-0.41c-0.74,8.58-5.03,15.14-10.19,15.14C219.61,179.34,215.41,172.94,214.54,164.61L214.54,164.61z
		 M241.23,163.95c7.05-0.29,13.9-0.7,20.5-1.24c-0.37,9.28-4.82,16.62-10.27,16.62C246.22,179.34,241.89,172.65,241.23,163.95
		L241.23,163.95z"/>
	<path class="st4" d="M204.85,64.34c17.69,0,32.05,14.31,32.05,32.01c0,17.65-14.35,32-32.05,32c-17.65,0-32-14.35-32-32
		C172.84,78.66,187.2,64.34,204.85,64.34L204.85,64.34z"/>
	<path class="st0" d="M204.85,70.65c14.23,0,25.74,11.51,25.74,25.7c0,14.19-11.51,25.7-25.74,25.7c-14.19,0-25.69-11.51-25.69-25.7
		C179.15,82.16,190.66,70.65,204.85,70.65L204.85,70.65z"/>
	<path class="st5" d="M204.85,78.28c9.98,0,18.06,8.09,18.06,18.07c0,9.94-8.08,18.02-18.06,18.02c-9.94,0-18.02-8.08-18.02-18.02
		C186.82,86.37,194.91,78.28,204.85,78.28L204.85,78.28z"/>
	<path class="st4" d="M199.69,81.5c4.33,0,7.84,3.5,7.84,7.83c0,4.33-3.51,7.88-7.84,7.88c-4.33,0-7.88-3.54-7.88-7.88
		C191.82,85.01,195.36,81.5,199.69,81.5L199.69,81.5z"/>
	<polygon class="st6" points="127.14,196.66 118.94,246.89 103.3,252.75 102.44,276.1 108.59,257.37 110.28,280.63 117.33,258.73 
		118.86,272.75 124.79,258.03 124.13,247.59 135.19,198.22 	"/>
	<polygon class="st7" points="118.07,265.54 118.86,272.75 124.79,258.03 124.13,247.59 135.19,198.22 130.61,197.32 121.04,247.93 
		120.63,261.37 	"/>
	<path class="st1" d="M144.1,195.09v0.04c-0.45,2.97-6.1,4.53-12.62,3.5c-6.52-0.99-11.42-4.2-10.97-7.13
		c0.04-0.21,0.08-0.41,0.16-0.62c3.3,1.69,7.63,3.09,12.46,3.84C137.09,195.34,140.88,195.42,144.1,195.09L144.1,195.09z"/>
	<polygon class="st6" points="298.72,196.66 306.97,246.89 322.6,252.75 323.42,276.1 317.32,257.37 315.63,280.63 308.58,258.73 
		307.05,272.75 301.11,258.03 301.77,247.59 290.72,198.22 	"/>
	<polygon class="st7" points="307.83,265.54 307.05,272.75 301.11,258.03 301.77,247.59 290.72,198.22 295.3,197.32 304.82,247.93 
		305.28,261.37 	"/>
	<path class="st8" d="M281.77,195.09v0.04c0.49,2.97,6.15,4.53,12.66,3.5c6.52-0.99,11.43-4.2,10.97-7.13
		c-0.04-0.21-0.12-0.41-0.21-0.62c-3.26,1.69-7.59,3.09-12.41,3.84C288.78,195.34,285.03,195.42,281.77,195.09L281.77,195.09z"/>
</g>
</svg>
